<?xml version="1.0" encoding="UTF-8" standalone="no"?>
<svg
   xmlns:dc="http://purl.org/dc/elements/1.1/"
   xmlns:cc="http://creativecommons.org/ns#"
   xmlns:rdf="http://www.w3.org/1999/02/22-rdf-syntax-ns#"
   xmlns:svg="http://www.w3.org/2000/svg"
   xmlns="http://www.w3.org/2000/svg"
   xmlns:sodipodi="http://sodipodi.sourceforge.net/DTD/sodipodi-0.dtd"
   xmlns:inkscape="http://www.inkscape.org/namespaces/inkscape"
   version="1.1"
   id="Layer_1"
   x="0px"
   y="0px"
   width="524.81903"
   height="144.27733"
   viewBox="0 0 524.81902 144.27732"
   enable-background="new 0 0 841.89 595.28"
   xml:space="preserve"
   inkscape:version="0.92.3 (2405546, 2018-03-11)"
   sodipodi:docname="colour-logo-gray.svg"><metadata
     id="metadata65"><rdf:RDF><cc:Work
         rdf:about=""><dc:format>image/svg+xml</dc:format><dc:type
           rdf:resource="http://purl.org/dc/dcmitype/StillImage" /><dc:title></dc:title></cc:Work></rdf:RDF></metadata><defs
     id="defs63" /><sodipodi:namedview
     pagecolor="#ffffff"
     bordercolor="#666666"
     borderopacity="1"
     objecttolerance="10"
     gridtolerance="10"
     guidetolerance="10"
     inkscape:pageopacity="0"
     inkscape:pageshadow="2"
     inkscape:window-width="3200"
     inkscape:window-height="1669"
     id="namedview61"
     showgrid="false"
     fit-margin-top="0"
     fit-margin-left="0"
     fit-margin-right="0"
     fit-margin-bottom="0"
     inkscape:zoom="4.5196532"
     inkscape:cx="262.40952"
     inkscape:cy="72.138664"
     inkscape:window-x="0"
     inkscape:window-y="0"
     inkscape:window-maximized="1"
     inkscape:current-layer="Layer_1" /><g
     id="g5"
     transform="translate(-158.534,-225.50101)"><path
       style="fill:#ffffff"
       inkscape:connector-curvature="0"
       id="path7"
       d="m 244.619,352.501 c -0.209,-1.424 0.197,-2.841 -0.232,-4.177 -0.367,-1.166 -1.209,-1.273 -1.762,-2.221 -1.457,-2.487 -2.963,-5.709 -3.102,-8.754 -0.127,-2.735 -1.133,-5.206 -1.27,-7.917 -0.066,-1.308 0.088,-2.657 0.041,-3.952 -0.025,-0.63 -0.061,-1.176 -0.186,-1.86 -0.031,-0.169 -0.143,-0.865 -0.195,-1.144 l 0.34,-0.848 c -0.15,-0.291 2.902,-0.194 3.812,-0.188 1.545,0.019 2.998,0.099 4.539,0.173 3.148,0.156 6.016,0.117 9.082,-0.356 6.832,-1.055 9.973,-3.845 11.58,-5.005 6.273,-4.523 9.146,-11.918 9.146,-11.918 1.035,-2.31 1.031,-6.431 3.25,-8.276 2.615,-2.179 7.006,-2.022 10.008,-3.359 1.756,-0.777 3.023,-1.205 4.818,-0.833 1.332,0.278 3.73,1.821 4.281,-0.345 -0.445,-0.287 -0.619,-0.812 -0.857,-1.103 2.475,-0.245 0.047,-5.986 -0.932,-7.133 -1.512,-1.77 -4.035,-2.581 -6.719,-3.293 -3.188,-0.845 -6.08,-1.82 -9.082,-1.231 -5.242,1.026 -4.85,-1.974 -7.939,-1.974 -3.707,0 -10.303,0.182 -11.443,3.786 -0.531,1.683 -1.078,1.753 -1.998,3.044 -0.787,1.106 0.137,2.082 -0.258,3.344 -0.408,1.297 -1.007,5.865 -1.632,7.459 -1.057,2.697 -2.317,6.065 -4.643,6.065 -3.261,0.39 -5.824,0.515 -8.469,-0.445 -1.592,-0.578 -4.26,-1.483 -5.58,-2.039 -6.088,-2.563 -7.088,-5.367 -7.088,-5.367 -0.653,-1.08 -2.374,-2.821 -3.018,-5.093 -0.708,-2.502 -1.903,-4.589 -2.387,-5.891 -0.501,-1.349 -1.699,-3.51 -2.64,-5.846 -1.205,-2.991 -2.9,-5.223 -4.141,-6.331 -1.896,-1.69 -3.646,-4.306 -7.495,-3.546 -0.688,0.136 -3.188,0.249 -5.104,1.856 -1.299,1.09 -1.709,3.339 -2.912,5.236 -0.695,1.096 -1.917,4.24 -3.038,6.863 -0.777,1.818 -1.139,3.181 -1.979,3.85 -0.657,0.524 -1.471,1.201 -2.456,0.832 -0.611,-0.229 -1.264,-0.617 -1.923,-1.132 -0.89,-0.695 -2.913,-4.138 -4.156,-6.681 -1.077,-2.205 -3.376,-5.502 -4.706,-7.287 -1.914,-2.568 -3.036,-3.219 -5.864,-3.219 -6.067,0 -6.526,3.397 -9.195,8.337 -1.172,2.17 -1.599,5.614 -3.952,8.313 -1.345,1.544 -5.637,7.893 -8.621,8.972 v -0.031 l -0.008,0.031 v 45.257 l 0.008,0.063 v -0.284 c 0.193,-0.59 0.398,-1.156 0.631,-1.662 1.154,-2.459 3.832,-4.741 5.32,-7.266 0.809,-1.376 1.732,-2.724 2.268,-4.168 0.461,-1.244 0.688,-3.099 1.354,-4.178 0.816,-1.323 2.094,-1.773 3.406,-1.987 2.055,-0.339 3.801,2.954 6.43,4.166 1.121,0.515 6.281,2.342 7.83,2.717 2.551,0.61 5.381,1.119 7.971,1.642 1.387,0.28 2.713,0.443 4.141,0.588 1.281,0.128 6.08,0.287 6.377,0.634 -2.439,1.244 -3.869,4.736 -4.785,7.207 -0.955,2.575 -1.621,5.441 -2.775,7.96 -1.279,2.783 -3.961,3.941 -3.641,7.184 0.123,1.294 0.359,2.651 0.143,4.075 -0.23,1.499 -0.836,2.669 -1.277,4.137 -0.566,1.915 -1.24,8.1 -2.113,9.918 l 5.337,-0.669 0.009,-0.003 c 0.583,-1.386 1.12,-7.237 1.309,-7.794 0.998,-2.934 2.322,-5.348 4.359,-7.617 1.986,-2.211 1.883,-5.061 3.043,-7.637 1.256,-2.8 2.945,-5.039 4.539,-7.671 2.881,-4.759 4.781,-10.767 10.906,-11.989 0.654,-0.135 4.404,2.569 6.068,4.177 1.906,1.832 3.988,3.954 5.24,6.48 2.424,4.896 4.48,11.988 5.258,15.899 0.447,2.246 0.803,2.38 2.322,4.159 0.699,0.815 2.094,3.362 2.553,4.34 0.482,1.044 1.215,3.42 1.799,4.633 0.344,0.722 1.236,2.94 1.885,4.856 l 4.987,-0.156 c 0.018,0.042 0.109,-0.012 0.13,0.027 0.002,0 0.005,-10e-4 0.007,-0.002 -0.021,-0.038 -0.04,-0.082 -0.058,-0.123 -2.485,-4.987 -4.075,-10.757 -4.896,-16.279 z" /><path
       style="fill:#484444"
       inkscape:connector-curvature="0"
       id="path9"
       d="m 241.453,323.402 0.023,-0.061 c -0.034,-0.154 -0.046,-0.189 -0.023,0.061 z" /><g
       id="g11"><g
         id="g13"><linearGradient
           y2="323.40149"
           x2="241.45911"
           y1="323.21951"
           x1="241.45911"
           gradientUnits="userSpaceOnUse"
           id="SVGID_1_"><stop
             id="stop16"
             style="stop-color:#F29100"
             offset="0" /><stop
             id="stop18"
             style="stop-color:#EC670F"
             offset="1" /></linearGradient><path
           style="fill:url(#SVGID_1_)"
           inkscape:connector-curvature="0"
           id="path20"
           d="m 241.453,323.402 0.023,-0.061 c -0.034,-0.154 -0.046,-0.189 -0.023,0.061 z" /><g
           id="g22"><linearGradient
             y2="369.77911"
             x2="219.808"
             y1="324.48169"
             x1="219.808"
             gradientUnits="userSpaceOnUse"
             id="SVGID_2_"><stop
               id="stop25"
               style="stop-color:#F29100"
               offset="0" /><stop
               id="stop27"
               style="stop-color:#EC670F"
               offset="1" /></linearGradient><path
             style="fill:url(#SVGID_2_)"
             inkscape:connector-curvature="0"
             id="path29"
             d="m 242.565,364.175 c -0.584,-1.213 -1.316,-3.589 -1.799,-4.633 -0.459,-0.978 -1.854,-3.524 -2.553,-4.34 -1.52,-1.779 -1.875,-1.913 -2.322,-4.159 -0.777,-3.911 -2.834,-11.004 -5.258,-15.899 -1.252,-2.526 -3.334,-4.648 -5.24,-6.48 -1.664,-1.607 -5.414,-4.312 -6.068,-4.177 -6.125,1.223 -8.025,7.23 -10.906,11.989 -1.594,2.632 -3.283,4.871 -4.539,7.671 -1.16,2.575 -1.057,5.426 -3.043,7.637 -2.037,2.27 -3.361,4.684 -4.359,7.617 -0.189,0.557 -0.726,6.408 -1.309,7.794 0,0.001 -0.001,0.002 -0.001,0.003 l 9.104,-0.641 c 8.482,0.578 6.033,3.829 19.273,3.121 l 20.906,-0.647 v 0 c -0.65,-1.916 -1.542,-4.134 -1.886,-4.856 z" /></g><g
           id="g31"><g
             id="g33"><linearGradient
               y2="369.74899"
               x2="241.3138"
               y1="225.5011"
               x1="241.3138"
               gradientUnits="userSpaceOnUse"
               id="SVGID_3_"><stop
                 id="stop36"
                 style="stop-color:#F29100"
                 offset="0" /><stop
                 id="stop38"
                 style="stop-color:#EC670F"
                 offset="1" /></linearGradient><path
               style="fill:url(#SVGID_3_)"
               inkscape:connector-curvature="0"
               id="path40"
               d="m 303.229,225.501 h -123.83 c -11.518,0 -20.855,9.339 -20.855,20.857 v 45.476 0.031 c 2.984,-1.079 7.276,-7.428 8.621,-8.972 2.353,-2.7 2.78,-6.144 3.952,-8.313 2.669,-4.94 3.128,-8.337 9.195,-8.337 2.828,0 3.951,0.652 5.864,3.219 1.331,1.785 3.63,5.083 4.706,7.287 1.242,2.544 3.266,5.986 4.156,6.681 0.659,0.516 1.312,0.903 1.923,1.132 0.984,0.369 1.798,-0.308 2.456,-0.832 0.84,-0.669 1.202,-2.032 1.979,-3.85 1.122,-2.623 2.343,-5.766 3.038,-6.863 1.203,-1.896 1.613,-4.146 2.912,-5.236 1.916,-1.607 4.416,-1.72 5.104,-1.856 3.849,-0.76 5.599,1.856 7.495,3.546 1.241,1.108 2.937,3.34 4.141,6.331 0.941,2.336 2.139,4.497 2.64,5.846 0.484,1.302 1.679,3.389 2.387,5.891 0.643,2.272 2.364,4.013 3.018,5.093 0,0 1.001,2.804 7.088,5.367 1.32,0.556 3.988,1.46 5.58,2.039 2.645,0.961 5.207,0.836 8.469,0.445 2.326,0 3.586,-3.368 4.643,-6.065 0.625,-1.594 1.224,-6.162 1.632,-7.459 0.395,-1.262 -0.529,-2.238 0.258,-3.344 0.92,-1.291 1.467,-1.361 1.998,-3.044 1.141,-3.604 7.736,-3.786 11.443,-3.786 3.09,0 2.697,3 7.939,1.974 3.002,-0.589 5.895,0.387 9.082,1.231 2.684,0.712 5.207,1.523 6.719,3.293 0.979,1.146 3.406,6.888 0.932,7.133 0.238,0.291 0.412,0.816 0.857,1.103 -0.551,2.166 -2.949,0.623 -4.281,0.345 -1.795,-0.372 -3.062,0.056 -4.818,0.833 -3.002,1.337 -7.393,1.181 -10.008,3.359 -2.219,1.846 -2.215,5.967 -3.25,8.276 0,0 -2.873,7.394 -9.146,11.918 -1.607,1.16 -4.748,3.95 -11.58,5.005 -3.066,0.474 -5.934,0.513 -9.082,0.356 -1.541,-0.074 -2.994,-0.153 -4.539,-0.173 -0.91,-0.007 -3.963,-0.104 -3.812,0.188 l -0.34,0.848 c 0.053,0.279 0.164,0.976 0.195,1.144 0.125,0.685 0.16,1.231 0.186,1.86 0.047,1.295 -0.107,2.645 -0.041,3.952 0.137,2.711 1.143,5.182 1.27,7.917 0.139,3.045 1.645,6.267 3.102,8.754 0.553,0.947 1.395,1.055 1.762,2.221 0.43,1.336 0.023,2.753 0.232,4.177 0.82,5.521 2.41,11.292 4.896,16.275 0.017,0.041 0.037,0.086 0.058,0.123 0,0 0,0.001 0.001,0.002 3.07,-0.516 6.146,-1.62 10.135,-2.21 7.314,-1.085 17.486,-0.526 24.02,-1.138 16.533,-1.554 25.506,6.781 40.355,3.365 V 246.359 c -0.002,-11.519 -9.336,-20.858 -20.857,-20.858 z m -61.776,97.901 c -0.023,-0.25 -0.012,-0.215 0.023,-0.061 z" /></g></g><g
           id="g42"><linearGradient
             y2="368.75021"
             x2="181.4066"
             y1="317.61649"
             x1="181.4066"
             gradientUnits="userSpaceOnUse"
             id="SVGID_4_"><stop
               id="stop45"
               style="stop-color:#F29100"
               offset="0" /><stop
               id="stop47"
               style="stop-color:#EC670F"
               offset="1" /></linearGradient><path
             style="fill:url(#SVGID_4_)"
             inkscape:connector-curvature="0"
             id="path49"
             d="m 196.709,342.554 c 1.154,-2.518 1.82,-5.385 2.775,-7.96 0.916,-2.471 2.346,-5.963 4.785,-7.207 -0.297,-0.347 -5.096,-0.506 -6.377,-0.634 -1.428,-0.145 -2.754,-0.308 -4.141,-0.588 -2.59,-0.523 -5.42,-1.031 -7.971,-1.642 -1.549,-0.375 -6.709,-2.202 -7.83,-2.717 -2.629,-1.212 -4.375,-4.505 -6.43,-4.166 -1.312,0.214 -2.59,0.664 -3.406,1.987 -0.666,1.079 -0.893,2.933 -1.354,4.178 -0.535,1.444 -1.459,2.792 -2.268,4.168 -1.488,2.524 -4.166,4.807 -5.32,7.266 -0.232,0.506 -0.438,1.072 -0.631,1.662 v 0.284 9.15 16.321 2.358 c 1.346,0.23 2.754,0.513 4.33,0.934 11.631,3.104 14.469,3.366 25.877,2.062 l 1.07,-0.142 c 0,0 0,-10e-4 0,-10e-4 0.873,-1.818 1.547,-8.003 2.113,-9.918 0.441,-1.468 1.047,-2.638 1.277,-4.137 0.217,-1.424 -0.02,-2.781 -0.143,-4.075 -0.317,-3.242 2.365,-4.4 3.644,-7.183 z" /></g></g></g></g><path
     style="fill:#555555;fill-opacity:1"
     inkscape:connector-curvature="0"
     id="path51"
     d="m 218.351,125.80399 c -5.506,0 -10.533,-0.981 -15.08,-2.941 -4.549,-1.959 -8.447,-4.774 -11.701,-8.447 -3.254,-3.67 -5.777,-8.134 -7.57,-13.39 -1.795,-5.256 -2.691,-11.22 -2.691,-17.896 0,-6.674 0.896,-12.618 2.691,-17.832 1.793,-5.213 4.316,-9.593 7.57,-13.14 3.254,-3.545 7.152,-6.257 11.701,-8.134 4.547,-1.877 9.574,-2.816 15.08,-2.816 5.506,0 10.531,0.939 15.08,2.816 4.545,1.877 8.445,4.611 11.699,8.197 3.254,3.588 5.777,7.99 7.572,13.203 1.793,5.215 2.689,11.118 2.689,17.707 0,6.676 -0.896,12.64 -2.689,17.896 -1.795,5.256 -4.318,9.72 -7.572,13.39 -3.254,3.673 -7.154,6.488 -11.699,8.447 -4.548,1.958 -9.574,2.94 -15.08,2.94 z m 0,-15.894 c 5.588,0 10.012,-2.397 13.266,-7.195 3.252,-4.797 4.879,-11.325 4.879,-19.585 0,-8.175 -1.627,-14.558 -4.879,-19.146 -3.254,-4.587 -7.678,-6.883 -13.266,-6.883 -5.59,0 -10.012,2.295 -13.266,6.883 -3.254,4.589 -4.881,10.972 -4.881,19.146 0,8.26 1.627,14.788 4.881,19.585 3.255,4.798 7.677,7.195 13.266,7.195 z" /><path
     style="fill:#555555;fill-opacity:1"
     inkscape:connector-curvature="0"
     id="path53"
     d="m 261.898,84.00599 c 0,-6.758 1.043,-12.784 3.129,-18.083 2.086,-5.297 4.9,-9.781 8.447,-13.453 3.545,-3.67 7.676,-6.464 12.389,-8.385 4.713,-1.918 9.699,-2.879 14.955,-2.879 5.088,0 9.697,1.064 13.828,3.191 4.129,2.128 7.57,4.611 10.324,7.446 l -10.137,11.388 c -2.086,-1.918 -4.193,-3.42 -6.32,-4.505 -2.127,-1.083 -4.609,-1.627 -7.445,-1.627 -2.838,0 -5.486,0.606 -7.947,1.814 -2.461,1.21 -4.609,2.941 -6.443,5.193 -1.836,2.252 -3.275,5.005 -4.318,8.259 -1.043,3.253 -1.564,6.926 -1.564,11.012 0,8.428 1.795,14.955 5.383,19.585 3.584,4.631 8.383,6.945 14.391,6.945 3.336,0 6.256,-0.667 8.76,-2.002 2.502,-1.334 4.754,-3.086 6.758,-5.256 l 10.137,11.138 c -3.422,4.004 -7.322,7.008 -11.701,9.01 -4.381,2.003 -9.117,3.004 -14.205,3.004 -5.256,0 -10.219,-0.897 -14.891,-2.69 -4.674,-1.793 -8.76,-4.443 -12.264,-7.947 -3.504,-3.504 -6.258,-7.862 -8.26,-13.077 -2.004,-5.211 -3.006,-11.239 -3.006,-18.081 z" /><path
     style="fill:#555555;fill-opacity:1"
     inkscape:connector-curvature="0"
     id="path55"
     d="m 332.353,107.03199 c 0,-6.508 2.752,-11.596 8.258,-15.267 5.508,-3.67 14.393,-6.132 26.656,-7.383 -0.168,-2.754 -1.002,-4.943 -2.502,-6.57 -1.502,-1.627 -3.924,-2.44 -7.26,-2.44 -2.67,0 -5.34,0.501 -8.008,1.502 -2.672,1.001 -5.508,2.378 -8.51,4.13 l -6.508,-12.139 c 4.004,-2.419 8.197,-4.38 12.576,-5.882 4.381,-1.501 9.029,-2.252 13.953,-2.252 8.01,0 14.121,2.274 18.334,6.82 4.211,4.548 6.32,11.618 6.32,21.212 v 35.54 h -15.016 l -1.377,-6.382 h -0.375 c -2.672,2.336 -5.486,4.235 -8.447,5.693 -2.963,1.459 -6.195,2.19 -9.699,2.19 -2.836,0 -5.381,-0.481 -7.633,-1.439 -2.252,-0.958 -4.172,-2.294 -5.756,-4.005 -1.586,-1.709 -2.816,-3.691 -3.693,-5.944 -0.875,-2.253 -1.313,-4.713 -1.313,-7.384 z m 17.52,-1.377 c 0,2.003 0.645,3.484 1.939,4.442 1.293,0.961 3.023,1.439 5.193,1.439 2.168,0 4.004,-0.457 5.506,-1.376 1.502,-0.918 3.086,-2.21 4.756,-3.88 v -10.888 c -6.592,0.919 -11.137,2.253 -13.641,4.005 -2.501,1.754 -3.753,3.839 -3.753,6.258 z" /><path
     style="fill:#555555;fill-opacity:1"
     inkscape:connector-curvature="0"
     id="path57"
     d="m 396.424,62.23099 h 15.018 l 1.252,8.009 h 0.5 c 2.586,-2.585 5.338,-4.818 8.26,-6.695 2.92,-1.877 6.424,-2.816 10.512,-2.816 4.422,0 7.988,0.897 10.699,2.69 2.711,1.795 4.859,4.36 6.445,7.696 2.754,-2.835 5.65,-5.275 8.697,-7.321 3.045,-2.043 6.652,-3.066 10.826,-3.066 6.672,0 11.574,2.233 14.703,6.695 3.129,4.464 4.693,10.574 4.693,18.333 v 38.544 h -18.396 v -36.166 c 0,-4.505 -0.606,-7.591 -1.814,-9.261 -1.211,-1.668 -3.15,-2.503 -5.818,-2.503 -3.088,0 -6.633,2.003 -10.639,6.007 v 41.923 h -18.394 v -36.166 c 0,-4.505 -0.607,-7.591 -1.815,-9.261 -1.211,-1.668 -3.15,-2.503 -5.82,-2.503 -3.172,0 -6.676,2.003 -10.512,6.007 v 41.923 h -18.397 z" /><path
     style="fill:#555555;fill-opacity:1"
     inkscape:connector-curvature="0"
     id="path59"
     d="m 498.666,36.57699 h 18.397 v 69.203 c 0,1.921 0.353,3.254 1.062,4.005 0.709,0.751 1.439,1.126 2.191,1.126 0.416,0 0.769,0 1.062,0 0.291,0 0.689,-0.082 1.189,-0.25 l 2.252,13.641 c -1,0.416 -2.273,0.771 -3.816,1.063 -1.545,0.292 -3.359,0.439 -5.443,0.439 -3.172,0 -5.842,-0.501 -8.01,-1.502 -2.17,-1.001 -3.9,-2.397 -5.193,-4.192 -1.295,-1.793 -2.232,-3.961 -2.816,-6.507 -0.584,-2.544 -0.875,-5.401 -0.875,-8.572 z" /></svg>